<svg width="100" height="100" viewBox="0 0 100 100" fill="none" xmlns="http://www.w3.org/2000/svg">
<path d="M20.8333 70.8333H16.6667C14.4565 70.8333 12.3369 69.9554 10.7741 68.3926C9.21131 66.8297 8.33334 64.7101 8.33334 62.5V20.8333C8.33334 18.6232 9.21131 16.5036 10.7741 14.9408C12.3369 13.378 14.4565 12.5 16.6667 12.5H83.3333C85.5435 12.5 87.6631 13.378 89.2259 14.9408C90.7887 16.5036 91.6667 18.6232 91.6667 20.8333V62.5C91.6667 64.7101 90.7887 66.8297 89.2259 68.3926C87.6631 69.9554 85.5435 70.8333 83.3333 70.8333H79.1667" stroke="#3A3768" stroke-width="2" stroke-linecap="round" stroke-linejoin="round"/>
<path d="M50 62.5L70.8333 87.5H29.1667L50 62.5Z" stroke="#FFCC18" stroke-width="2" stroke-linecap="round" stroke-linejoin="round"/>
</svg>
